<?xml version="1.0" encoding="utf-8"?>
<!-- Generator: Adobe Illustrator 24.3.0, SVG Export Plug-In . SVG Version: 6.00 Build 0)  -->
<svg version="1.1" xmlns="http://www.w3.org/2000/svg" xmlns:xlink="http://www.w3.org/1999/xlink" x="0px" y="0px"
	 viewBox="0 0 3710 3710" style="enable-background:new 0 0 3710 3710;" xml:space="preserve">
<style type="text/css">
	.st0{fill:#F4F7FA;}
	.st1{fill:#FFFFFF;}
	.st2{opacity:0.5;clip-path:url(#SVGID_2_);}
	.st3{fill:#FCFDFE;}
	.st4{opacity:0.8;clip-path:url(#SVGID_5_);}
	.st5{clip-path:url(#SVGID_8_);}
	.st6{fill:url(#SVGID_9_);}
	.st7{fill:url(#SVGID_10_);}
	.st8{fill:url(#SVGID_11_);}
	.st9{fill:url(#SVGID_12_);}
	.st10{fill:url(#SVGID_13_);}
	.st11{fill:url(#SVGID_14_);}
	.st12{fill:#97A6B7;}
	.st13{fill:#D8DEE8;}
	.st14{opacity:0.74;fill:#FFFFFF;}
	.st15{opacity:0.3;fill:#97A6B7;}
	.st16{fill:url(#SVGID_15_);}
	.st17{opacity:0.5;fill:#FFFFFF;}
	.st18{fill:url(#SVGID_16_);}
	.st19{fill:url(#SVGID_17_);}
	.st20{fill:url(#SVGID_18_);}
	.st21{fill:url(#SVGID_19_);}
	.st22{fill:url(#SVGID_20_);}
	.st23{fill:url(#SVGID_21_);}
	.st24{fill:url(#SVGID_22_);}
	.st25{fill:url(#SVGID_23_);}
	.st26{fill:url(#SVGID_24_);}
	.st27{fill:url(#SVGID_25_);}
	.st28{opacity:0.3;fill:url(#SVGID_26_);}
	.st29{fill:url(#SVGID_27_);}
	.st30{opacity:0.2;}
	.st31{fill:url(#SVGID_28_);}
	.st32{fill:url(#SVGID_29_);}
	.st33{fill:url(#SVGID_30_);}
	.st34{opacity:0.1;fill:url(#SVGID_31_);}
	.st35{fill:url(#SVGID_32_);}
	.st36{fill:url(#SVGID_33_);}
	.st37{fill:url(#SVGID_34_);}
	.st38{fill:url(#SVGID_35_);}
	.st39{fill:url(#SVGID_36_);}
	.st40{fill:url(#SVGID_37_);}
	.st41{fill:url(#SVGID_38_);}
	.st42{fill:url(#SVGID_39_);}
	.st43{fill:url(#SVGID_40_);}
	.st44{opacity:0.3;fill:url(#SVGID_41_);}
	.st45{fill:url(#SVGID_42_);}
	.st46{fill:url(#SVGID_43_);}
	.st47{opacity:0.2;fill:url(#SVGID_44_);}
	.st48{fill:url(#SVGID_45_);}
	.st49{fill:url(#SVGID_46_);}
	.st50{fill:url(#SVGID_47_);}
	.st51{fill:url(#SVGID_48_);}
	.st52{fill:url(#SVGID_49_);}
	.st53{fill:url(#SVGID_50_);}
	.st54{fill:url(#SVGID_51_);}
	.st55{fill:url(#SVGID_52_);}
	.st56{fill:url(#SVGID_53_);}
	.st57{fill:url(#SVGID_54_);}
	.st58{opacity:0.3;}
	.st59{fill:url(#SVGID_55_);}
	.st60{fill:url(#SVGID_56_);}
	.st61{opacity:0.8;fill:#FFFFFF;}
</style>
<g id="Background">
</g>
<g id="Illustration">
	<g>
		<path class="st0" d="M3398.8,1621.4C3312.6,1057,2959.1,363.6,2260.6,291c0,0-530.3-64.5-1053,33.3
			c-310.2,58-582.3,230.7-754.4,479c-172.1,248.2-229.6,550.9-159.9,839.5c45.3,187.4,76,381.4,67.5,574
			c-14.6,335.2-6.2,648.1,319.1,848c290.5,178.5,656,335.9,1004.7,363.5c237,18.7,502.8-11.6,731.2-73.3
			C3579.9,3040.5,3485.1,2185.8,3398.8,1621.4z"/>
		<g>
			<path class="st1" d="M2398.7,2965.8c-12.2-3.5,12.4-65.7-11.3-153.7c-5.9-22-29.8-144.2-121.8-161.7
				c-17.9-3.4-35.7-6.8-53.6-10.2c-9.3-42.7-10.1-84.7,46.8-91.8c88.3-11,110-152.2,93.7-205.9c-20.2-66.4-63.9-221.8,72.2-240.9
				c113.4-15.9,190.6-4,216.7-135.5c26.1-131.5,114.1-202.6,240-175.2c132.6,28.9,265.7-122.9,367.4-49.7
				c177.2,127.6-36.4,393.5-280.3,442.5c-243.9,49-121.8,148.8-130.6,258.3c-1.4,10.1-4.3,25.7-11.3,43.5
				c-42.9,109.2-164,110.6-262.7,190.3C2429.2,2784.6,2419.4,2971.7,2398.7,2965.8z"/>
			<g>
				<defs>
					<path id="SVGID_1_" d="M2508.5,2720.5l-291.1-47c-11.2-41.8-22.2-117.2,41.3-125.1c88.3-11,110-152.2,93.7-205.9
						c-20.2-66.4-63.9-221.8,72.2-240.9c113.4-15.9,190.6-4,216.7-135.5c26.1-131.5,114.1-202.6,240-175.2
						c132.6,28.9,265.7-122.9,367.4-49.6c177.2,127.6-36.4,393.5-280.3,442.5c-243.9,49-121.8,148.8-130.6,258.3
						c-12.1,149.6-219.3,85.4-283.3,135C2504.4,2616.1,2503.8,2680.4,2508.5,2720.5z"/>
				</defs>
				<use xlink:href="#SVGID_1_"  style="overflow:visible;fill:#D8DEE8;"/>
				<clipPath id="SVGID_2_">
					<use xlink:href="#SVGID_1_"  style="overflow:visible;"/>
				</clipPath>
				<g class="st2">
					<path class="st3" d="M2377.9,2655.1l-6-2.2c152.3-414.1,517.4-749.8,952.8-876.1l2,5.8
						C2893.1,1908.4,2529.6,2242.7,2377.9,2655.1z"/>
					<path class="st3" d="M2481.5,2436.7l-6.3-1c24.5-171.7-111.6-330-113-331.6l4.8-3.8C2368.5,2101.9,2506.4,2262.2,2481.5,2436.7
						z"/>
					<path class="st3" d="M2408.1,2579.7l-5.1-3.7c109.2-139.5,446.3-108.7,449.7-108.4l-0.5,6
						C2848.8,2473.3,2515.2,2442.8,2408.1,2579.7z"/>
					<path class="st3" d="M2758.7,2099.9l-5.5-3.3c76.1-117.6,16.7-326.3,16.1-328.4l6.1-1.5
						C2776.1,1768.8,2836.3,1980.1,2758.7,2099.9z"/>
					<path class="st3" d="M2988.9,1929.8l-2.6-5.6c153.3-60.2,366.1,19.8,368.2,20.6l-2.2,5.6
						C3350.2,1949.6,3139.8,1870.6,2988.9,1929.8z"/>
				</g>
			</g>
		</g>
		<g>
			<g>
				<defs>
					<path id="SVGID_3_" d="M1845.3,2824.8c314.1-226.6,362.2-715.8,212.7-849.2c-77.8-69.4-176.9-13.7-247.6-96.7
						c-78.3-91.9,4.6-205.6-5.7-457.2c-5.3-130-15-365.7-151.6-450.4c-135.4-84-260.6,64.2-411.4-18.1
						c-142.5-77.8-84.7-240-258.3-392.2c-16.1-14.2-199.7-171.3-348.2-110.9c-150.9,61.4-212.3,325.6-136.4,493.3
						c69,152.4,231.2,180.3,220.8,269.3c-11.5,98-212.3,96.2-233.8,195.8c-31.1,143.9,365.6,252.7,372.1,480.9
						c3.8,134.1-131.7,156.7-163.7,325.6c-41.3,218.1,133.5,448.3,286.6,564.1C1202.7,2946.9,1573.1,3021.2,1845.3,2824.8z"/>
				</defs>
				<linearGradient id="SVGID_4_" gradientUnits="userSpaceOnUse" x1="1742.189" y1="900.9319" x2="-1203.2106" y2="5244.146">
					<stop  offset="3.597120e-03" style="stop-color:#E38DDD"/>
					<stop  offset="1" style="stop-color:#9571F6"/>
				</linearGradient>
				<use xlink:href="#SVGID_3_"  style="overflow:visible;fill:url(#SVGID_4_);"/>
				<clipPath id="SVGID_5_">
					<use xlink:href="#SVGID_3_"  style="overflow:visible;"/>
				</clipPath>
				<g class="st4">
					<path class="st1" d="M1683.4,3036l11.9-3c-115.6-461.1-250.4-889.2-400.7-1272.4C1174.3,1453.9,1043.9,1175.2,907,932
						C673.6,517.7,499.7,348.1,498,346.4l-8.5,8.8c1.7,1.7,174.7,170.4,407.2,583.5C1111.4,1320.1,1422.1,1993.5,1683.4,3036z"/>
					<path class="st1" d="M927.9,972.5c69.8-374.1-51.2-680-52.5-683.1l-11.4,4.6c1.2,3,120.9,305.8,51.8,676.2L927.9,972.5z"/>
					<path class="st1" d="M1317.3,1815.1c199-363.6,257.9-621.9,272.2-774.6c15.6-166.3-15.8-245.2-17.2-248.5l-11.4,4.7
						c0.3,0.8,31.8,80.3,16.2,244.1c-14.4,151.3-73,407.5-270.6,768.5L1317.3,1815.1z"/>
					<path class="st1" d="M1588.1,2644.1c481.9-541.2,501.7-968.1,501.9-972.3l-12.3-0.4c0,1.1-5.5,111.7-73.1,289.6
						c-59.5,156.6-181.7,400.9-425.7,675L1588.1,2644.1z"/>
					<path class="st1" d="M1136.5,1695.3c41.9,7.3,84.8,12.5,128.8,15.1l0.7-12.3c-287.1-16.7-533.5-147.2-689.6-253.8
						c-169.2-115.5-271.7-228.4-272.7-229.5l-9.1,8.2c1,1.1,104.4,115.1,274.9,231.4C703,1545.6,902.1,1654.2,1136.5,1695.3z"/>
					<path class="st1" d="M1467.5,2483c22.6,4,45.6,7.2,69.2,9.6l1.2-12.2c-298.3-30.6-522.3-194.1-657.7-326
						c-146.8-143-223.8-280.3-224.6-281.7l-10.7,6c0.8,1.4,78.7,140.3,226.8,284.5C997.8,2286,1200.1,2436.1,1467.5,2483z"/>
				</g>
			</g>
		</g>
		<g>
			<g>
				<defs>
					<path id="SVGID_6_" d="M1755.5,2499c-290.7-216-329.2-674-187.5-796.7c73.7-63.8,165.6-10.5,232.7-87.1
						c74.4-84.9-1.6-192.3,11.4-427.3c6.7-121.4,18.9-341.6,147.7-419c127.7-76.7,242.8,63.5,384.8-11.5
						c134.3-70.9,82.4-223.2,246.7-363.2c15.3-13,189-157.5,327-99.1c140.3,59.4,194.2,307.2,120.9,463
						c-66.6,141.5-218.6,165.5-210,248.8c9.5,91.8,197.2,92.8,215.9,186.2c27.2,135-345.2,231.4-354.2,444.6
						c-5.3,125.4,121,148.2,148.7,306.6c35.8,204.4-130.8,417.4-275.5,523.6C2354.6,2621.7,2007.4,2686.2,1755.5,2499z"/>
				</defs>
				
					<linearGradient id="SVGID_7_" gradientUnits="userSpaceOnUse" x1="716.524" y1="1714.1776" x2="6418.8052" y2="2.0443" gradientTransform="matrix(0.9873 -0.1587 0.1587 0.9873 330.7125 462.9924)">
					<stop  offset="0" style="stop-color:#FFC444"/>
					<stop  offset="0.9964" style="stop-color:#F36F56"/>
				</linearGradient>
				<use xlink:href="#SVGID_6_"  style="overflow:visible;fill:url(#SVGID_7_);"/>
				<clipPath id="SVGID_8_">
					<use xlink:href="#SVGID_6_"  style="overflow:visible;"/>
				</clipPath>
				<g class="st5">
					
						<linearGradient id="SVGID_9_" gradientUnits="userSpaceOnUse" x1="709.3564" y1="1690.3025" x2="6411.6411" y2="-21.8318" gradientTransform="matrix(0.9873 -0.1587 0.1587 0.9873 330.7125 462.9924)">
						<stop  offset="0" style="stop-color:#FFC444"/>
						<stop  offset="0.9964" style="stop-color:#F36F56"/>
					</linearGradient>
					<path class="st6" d="M1904.1,2698.6l-11.1-2.9c114.2-429.5,245.9-828,391.5-1184.3c116.5-285.1,242.1-544,373.4-769.5
						c223.7-384.3,388.5-540.5,390.1-542l7.8,8.4c-1.6,1.5-165.6,157-388.5,540.1C2461.7,1102.1,2162.2,1727.5,1904.1,2698.6z"/>
					
						<linearGradient id="SVGID_10_" gradientUnits="userSpaceOnUse" x1="477.8491" y1="919.2505" x2="6180.1304" y2="-792.8828" gradientTransform="matrix(0.9873 -0.1587 0.1587 0.9873 330.7125 462.9924)">
						<stop  offset="0" style="stop-color:#FFC444"/>
						<stop  offset="0.9964" style="stop-color:#F36F56"/>
					</linearGradient>
					<path class="st7" d="M2637.8,779.5c-60.3-350.6,56.9-635,58.1-637.9l10.6,4.4c-1.2,2.8-117.1,284.3-57.4,631.5L2637.8,779.5z"
						/>
					
						<linearGradient id="SVGID_11_" gradientUnits="userSpaceOnUse" x1="573.4965" y1="1237.7825" x2="6275.7246" y2="-474.3349" gradientTransform="matrix(0.9873 -0.1587 0.1587 0.9873 330.7125 462.9924)">
						<stop  offset="0" style="stop-color:#FFC444"/>
						<stop  offset="0.9964" style="stop-color:#F36F56"/>
					</linearGradient>
					<path class="st8" d="M2262.6,1562.1c-181.2-342.6-232.8-584.8-244.2-727.7c-12.4-155.7,18.1-229,19.4-232.1l10.6,4.5
						c-0.3,0.7-30.8,74.7-18.4,228c11.5,141.7,62.9,381.9,242.8,722L2262.6,1562.1z"/>
					
						<linearGradient id="SVGID_12_" gradientUnits="userSpaceOnUse" x1="731.2116" y1="1763.1295" x2="6433.6328" y2="50.9541" gradientTransform="matrix(0.9873 -0.1587 0.1587 0.9873 330.7125 462.9924)">
						<stop  offset="0" style="stop-color:#FFC444"/>
						<stop  offset="0.9964" style="stop-color:#F36F56"/>
					</linearGradient>
					<path class="st9" d="M1998.4,2333.4c-443.3-512.4-456.2-911.7-456.3-915.7l11.5-0.2c0,1,3.7,104.5,64.5,271.7
						c53.5,147.2,164.5,377.2,389,636.7L1998.4,2333.4z"/>
					
						<linearGradient id="SVGID_13_" gradientUnits="userSpaceOnUse" x1="704.6218" y1="1674.5488" x2="6406.9238" y2="-37.5907" gradientTransform="matrix(0.9873 -0.1587 0.1587 0.9873 330.7125 462.9924)">
						<stop  offset="0" style="stop-color:#FFC444"/>
						<stop  offset="0.9964" style="stop-color:#F36F56"/>
					</linearGradient>
					<path class="st10" d="M2433.2,1452.4c-39.2,6.3-79.5,10.6-120.6,12.4l-0.5-11.5c268.7-11.8,500.7-130.5,648.1-228.1
						c159.8-105.7,257-209.9,258-210.9l8.4,7.8c-1,1-99.2,106.2-260.1,212.7C2840.5,1318.3,2652.9,1417.1,2433.2,1452.4z"/>
					
						<linearGradient id="SVGID_14_" gradientUnits="userSpaceOnUse" x1="835.5215" y1="2110.498" x2="6537.8135" y2="398.3616" gradientTransform="matrix(0.9873 -0.1587 0.1587 0.9873 330.7125 462.9924)">
						<stop  offset="0" style="stop-color:#FFC444"/>
						<stop  offset="0.9964" style="stop-color:#F36F56"/>
					</linearGradient>
					<path class="st11" d="M2113.3,2184.5c-21.2,3.4-42.8,6.1-64.8,8.1l-1-11.4c279.3-24.6,490.8-174.6,619.2-296
						c139.1-131.7,213-259.1,213.7-260.3l10,5.7c-0.7,1.3-75.4,130.1-215.8,262.9C2555,2006.5,2363.8,2144.2,2113.3,2184.5z"/>
				</g>
			</g>
		</g>
		<g>
			<path class="st12" d="M2584.4,806l-1557.9-98.6c-35.9-1.9-68.2,40.9-68.2,76.9v2194.4c0,49.9,46.6,59.9,82.5,55.9l1543.6-172.4
				c28.2-3.1,51-31.4,51-63.1v-1933C2635.3,834.4,2612.6,807.5,2584.4,806z"/>
			<path class="st13" d="M2610,788.6l-1561-84c-35.9-1.9-65.1,25.9-65.1,62.1v2211.5c0,36.2,29.2,62.3,65.1,58.3l1561-175.7
				c28.2-3.2,51-31.6,51-63.5V849.1C2660.9,817.2,2638.2,790.1,2610,788.6z"/>
			<path class="st14" d="M1049,3006.5c-19.4,2.1-35.1-12-35.1-31.5V768.2c0-19.5,15.8-34.6,35.1-33.6l1561,80.7
				c15.2,0.8,27.6,15.5,27.6,32.8v1951.8c0,17.3-12.4,32.7-27.6,34.4L1049,3006.5z"/>
			<polygon class="st1" points="2509.4,2781.8 1174.3,2922.5 1174.3,886.5 2509.4,941.5 			"/>
			<path class="st15" d="M1975.4,951.5l-533.6,7.3l12-131.6c0.9-17.1,12.2-31.1,27.1-33.6l90.4-15.2c10.6-1.8,19.8-9.5,24.5-20.5
				l9.8-23.3l236.4,16L1975.4,951.5z"/>
			<linearGradient id="SVGID_15_" gradientUnits="userSpaceOnUse" x1="1441.792" y1="747.7304" x2="2280.625" y2="747.7304">
				<stop  offset="0" style="stop-color:#444B8C"/>
				<stop  offset="0.9964" style="stop-color:#26264F"/>
			</linearGradient>
			<path class="st16" d="M2260.3,866.1c-2.5-14.9-13.4-25.3-27.2-26l-85.3-4.2c-38.7-1.9-67.1-36.3-65.6-79.8l3.3-100.9
				c0.6-18.7-11.6-33.6-28.3-34.7l-28-1.8c-21.4-1.4-35.6-22-32.6-45.8c5.2-41.6-20.8-77.5-58.6-80.4c-38.1-2.8-73.6,29-79.3,71.1
				c-0.8,6.3-2.8,12.5-5.9,18c-8.8,15.4-24.2,23.9-39.3,23l-28.9-1.9c-17.5-1.1-34.1,12.3-38.6,31.2l-24,102.5
				c-10.4,44.3-49.6,76.3-91.2,74.3l-93.5-4.6c-15.3-0.8-30.4,9-37.4,24.3l-56.4,122.3c-4.6,10,1.1,20.8,11.1,21.2l811.1,29.5
				c8.9,0.3,16.4-9.4,14.8-19L2260.3,866.1z M1926.5,579.7c-11.2-0.8-18.9-11.4-17.3-23.7c1.6-12.3,12-21.7,23.2-20.9
				c11.1,0.8,18.9,11.4,17.2,23.7C1948,571.1,1937.6,580.5,1926.5,579.7z"/>
			<path class="st12" d="M2265.1,868.8c-2.5-14.9-13.4-25.3-27.2-26l-85.3-4.2c-38.7-1.9-67.1-36.3-65.6-79.8l3.3-100.9
				c0.6-18.7-11.6-33.6-28.3-34.7l-28-1.8c-21.4-1.4-35.6-22-32.6-45.8c5.2-41.6-20.8-77.5-58.6-80.4c-38.1-2.8-73.6,29-79.3,71.1
				c-0.8,6.3-2.8,12.5-5.9,18c-8.8,15.4-24.2,23.9-39.3,23l-28.9-1.9c-17.5-1.1-34.1,12.3-38.6,31.2l-24,102.5
				c-10.4,44.3-49.6,76.3-91.2,74.3l-93.5-4.6c-15.3-0.8-30.4,9-37.4,24.3l-56.4,122.3c-4.6,10,1.1,20.8,11.1,21.2l811.1,29.5
				c8.9,0.3,16.4-9.4,14.8-19L2265.1,868.8z M1931.3,582.5c-11.2-0.8-18.9-11.4-17.3-23.7c1.6-12.3,12-21.7,23.2-20.9
				c11.1,0.8,18.9,11.4,17.2,23.7C1952.8,573.9,1942.4,583.2,1931.3,582.5z"/>
			<g>
				<path class="st17" d="M2126.3,925c-72.3-48.9-127.9-14.2-173-69.3c-48.3-59-15.7-136.6-65.7-173.3c-32-23.5-60.5-2.8-97.7-9.1
					c-13.6-2.3-28.1-8.2-43.2-19.8l-20,85.5c-10.4,44.3-49.6,76.3-91.2,74.3l-93.5-4.6c-15.3-0.8-30.4,9-37.4,24.3l-56.4,122.3
					c-4.6,10,1.1,20.8,11.1,21.2l737.1,26.8C2177.9,971.1,2154.8,944.3,2126.3,925z"/>
			</g>
			<g>
				<g>
					<path class="st13" d="M1469.6,1862.9v118.9l-112.4,4.1v-120L1469.6,1862.9L1469.6,1862.9z M1481.8,1850.5l-136.7,3.7v144.5
						l136.7-5V1850.5L1481.8,1850.5z"/>
					<polygon class="st13" points="2389.2,1960.1 1532.1,1991.7 1532.1,1849.1 2389.2,1826 					"/>
				</g>
				<g>
					<path class="st13" d="M1469.6,2071.6v118.9l-112.4,5.8v-120L1469.6,2071.6L1469.6,2071.6z M1481.8,2059l-136.7,5.7v144.5
						l136.7-7V2059L1481.8,2059z"/>
					<polygon class="st13" points="2389.2,2155.3 1532.1,2199.5 1532.1,2056.9 2389.2,2021.3 					"/>
				</g>
				<g>
					<path class="st13" d="M1469.6,2280.3v118.9l-112.4,7.4v-120L1469.6,2280.3L1469.6,2280.3z M1481.8,2267.5l-136.7,7.7v144.5
						l136.7-9V2267.5L1481.8,2267.5z"/>
					<polygon class="st13" points="2389.2,2350.6 1532.1,2407.3 1532.1,2264.7 2389.2,2216.6 					"/>
				</g>
				<g>
					<path class="st13" d="M1469.6,2489v118.9l-112.4,9.1v-120L1469.6,2489L1469.6,2489z M1481.8,2476l-136.7,9.7v144.5l136.7-11
						V2476L1481.8,2476z"/>
					<polygon class="st13" points="2389.2,2545.8 1532.1,2615 1532.1,2472.4 2389.2,2411.8 					"/>
				</g>
				<path class="st13" d="M1345.1,1726.3c-1.6,0-3.1-0.6-4.3-1.7c-1.2-1.1-1.8-2.7-1.8-4.3v-674.3c0-1.6,0.7-3.2,1.8-4.4
					c1.2-1.1,2.7-1.8,4.4-1.7l543.5,15.9c3.3,0.1,5.9,2.8,5.9,6.1v648.9c0,3.3-2.7,6-6,6.1l-543.5,9.6
					C1345.2,1726.3,1345.1,1726.3,1345.1,1726.3z M1351.2,1052.1V1714l531.4-9.4v-637L1351.2,1052.1z M1888.6,1710.6L1888.6,1710.6
					L1888.6,1710.6z"/>
				<polygon class="st13" points="2389.2,1158.7 1974,1149.2 1974,1064.2 2389.2,1076.3 				"/>
				<polygon class="st13" points="2389.2,1341.8 1974,1337.9 1974,1295.4 2389.2,1300.6 				"/>
				<polygon class="st13" points="2389.2,1409.7 1974,1407.9 1974,1365.4 2389.2,1368.5 				"/>
				<polygon class="st13" points="2389.2,1477.6 1974,1477.9 1974,1435.4 2389.2,1436.4 				"/>
				<g>
					<polygon class="st13" points="1366.3,1696.2 1366.3,1437.7 1445.4,1425.2 1783.4,1421.6 1868.9,1436.9 1868.9,1688.2 					"/>
					<g>
						<path class="st1" d="M1634.4,1260.2c3.9,39.7,7.8,79.4,11.7,119.1c1.1,10.7,9.1,19.2,19.1,20.1c39.6,3.7,83.1,23.2,122.3,26.8
							l-179.6,56.1l-158.4-52.5c42.7-6.5,73.8-20.2,105.2-30.4c8-2.6,13.8-10,14.8-18.9c2.7-24.6,5.4-49.2,8.1-73.7L1634.4,1260.2z"
							/>
						<path class="st13" d="M1607.9,1488.4c-0.6,0-1.3-0.1-1.9-0.3l-158.4-52.5c-2.7-0.9-4.4-3.5-4.1-6.3c0.2-2.8,2.4-5.1,5.1-5.5
							c31.9-4.9,57-13.7,81.3-22.2c7.9-2.8,15.3-5.4,23-7.9c5.8-1.9,9.9-7.3,10.7-13.8l8.2-73.7c0.2-1.6,1-3,2.2-4l56.7-46.7
							c1.7-1.4,4.1-1.8,6.2-0.9c2.1,0.9,3.5,2.8,3.7,5l11.7,119.1c0.8,7.8,6.5,14,13.7,14.7c20.4,1.9,41.8,7.9,62.5,13.7
							c20,5.6,40.8,11.4,59.8,13.2c2.9,0.3,5.2,2.5,5.5,5.4c0.3,2.9-1.5,5.6-4.2,6.4l-179.6,56.1
							C1609.2,1488.3,1608.6,1488.4,1607.9,1488.4z M1473.7,1431.4l134.3,44.5l153.2-47.8c-12-2.6-24.2-6-36.1-9.4
							c-20.2-5.6-41-11.5-60.3-13.3c-12.9-1.2-23.3-12-24.6-25.6l-10.6-107.7l-46,37.9l-7.9,71.3c-1.2,11.2-8.7,20.6-19,24
							c-7.5,2.4-14.9,5-22.7,7.8C1515.2,1419.6,1496.1,1426.4,1473.7,1431.4z"/>
					</g>
					<g>
						<g>
							<path class="st1" d="M1677.2,1256.5c0,58.1-30.9,126-69.3,125.7c-38.6-0.2-70-69.2-70-127.8s31.4-84.3,70-83.5
								C1646.3,1171.7,1677.2,1198.4,1677.2,1256.5z"/>
							<path class="st13" d="M1608.1,1388.3c-0.1,0-0.2,0-0.2,0c-42.8-0.3-76-72.2-76-133.9c0-30.5,8.4-54.8,24.3-70.4
								c13.2-13,31.2-19.6,51.8-19.2c55.5,1.2,75.2,48.1,75.2,91.6c0,44.2-16.8,91.7-40.8,115.6
								C1631.7,1382.9,1620.1,1388.3,1608.1,1388.3z M1606.2,1177c-16.6,0-31,5.4-41.5,15.7c-13.5,13.3-20.7,34.6-20.7,61.7
								c0,54.6,29.5,121.5,63.9,121.7c8.9,0,17.4-4.2,25.9-12.6c21.6-21.5,37.3-66.5,37.3-107c0-49-23.7-78.7-63.3-79.5
								C1607.3,1177,1606.7,1177,1606.2,1177z"/>
						</g>
					</g>
				</g>
			</g>
			<linearGradient id="SVGID_16_" gradientUnits="userSpaceOnUse" x1="1412.4423" y1="1792.0634" x2="1616.3123" y2="2814.897">
				<stop  offset="0" style="stop-color:#FF9085"/>
				<stop  offset="1" style="stop-color:#FB6FBB"/>
			</linearGradient>
			<path class="st18" d="M1362.4,1922.9c0,0,37.5,31.3,44.7,50.6c0.6,0.8,12.4-2,13.8-1.4c4.2-8.5,10.8-31.5,28.1-58.1
				c22.7-34.8,49.3-68.6,49.8-69c0,0,0.2-0.2,0.2-0.4c0.2-1.1-4.2-3-4.9-2.3c-4.6,4.5-31.2,30.6-52.8,57.5
				c-18.2,22.6-32.3,47-32.3,47s-35.8-27.7-40.7-29.3C1366.4,1919.4,1364.4,1921.1,1362.4,1922.9z"/>
			<linearGradient id="SVGID_17_" gradientUnits="userSpaceOnUse" x1="1370.8906" y1="1800.3455" x2="1574.7606" y2="2823.179">
				<stop  offset="0" style="stop-color:#FF9085"/>
				<stop  offset="1" style="stop-color:#FB6FBB"/>
			</linearGradient>
			<path class="st19" d="M1362.4,2139.7c0,0,37.5,31.3,44.7,50.6c0.6,0.8,12.4-2,13.8-1.4c4.2-8.5,10.8-31.5,28.1-58.1
				c22.7-34.8,49.3-68.6,49.8-69c0,0,0.2-0.2,0.2-0.4c0.2-1.1-4.2-3-4.9-2.3c-4.6,4.5-31.2,30.6-52.8,57.5
				c-18.2,22.6-32.3,47-32.3,47s-35.8-27.7-40.7-29.3C1366.4,2136.1,1364.4,2137.9,1362.4,2139.7z"/>
			<linearGradient id="SVGID_18_" gradientUnits="userSpaceOnUse" x1="1370.8906" y1="2019.1863" x2="1574.7606" y2="3042.02">
				<stop  offset="0" style="stop-color:#FF9085"/>
				<stop  offset="1" style="stop-color:#FB6FBB"/>
			</linearGradient>
			<path class="st20" d="M1362.4,2358.5c0,0,37.5,31.3,44.7,50.6c0.6,0.8,12.4-2,13.8-1.4c4.2-8.5,10.8-31.5,28.1-58.1
				c22.7-34.8,49.3-68.6,49.8-69c0,0,0.2-0.2,0.2-0.4c0.2-1.1-4.2-3-4.9-2.3c-4.6,4.5-31.2,30.6-52.8,57.5
				c-18.2,22.6-32.3,47-32.3,47s-35.8-27.7-40.7-29.3C1366.4,2354.9,1364.4,2356.7,1362.4,2358.5z"/>
			<linearGradient id="SVGID_19_" gradientUnits="userSpaceOnUse" x1="1290.9447" y1="1816.2797" x2="1494.8147" y2="2839.113">
				<stop  offset="0" style="stop-color:#FF9085"/>
				<stop  offset="1" style="stop-color:#FB6FBB"/>
			</linearGradient>
			<path class="st21" d="M1362.4,2556.7c0,0,37.5,31.3,44.7,50.6c0.6,0.8,12.4-2,13.8-1.4c4.2-8.5,10.8-31.5,28.1-58.1
				c22.7-34.8,49.3-68.6,49.8-69c0,0,0.2-0.2,0.2-0.4c0.2-1.1-4.2-3-4.9-2.3c-4.6,4.5-31.2,30.6-52.8,57.5
				c-18.2,22.6-32.3,47-32.3,47s-35.8-27.7-40.7-29.3C1366.4,2553.1,1364.4,2554.9,1362.4,2556.7z"/>
		</g>
		<g>
			
				<linearGradient id="SVGID_20_" gradientUnits="userSpaceOnUse" x1="7827.9331" y1="2646.0708" x2="7853.748" y2="2261.72" gradientTransform="matrix(1 0 0 1 -5153.7842 0)">
				<stop  offset="0" style="stop-color:#444B8C"/>
				<stop  offset="0.9964" style="stop-color:#26264F"/>
			</linearGradient>
			<path class="st22" d="M2662,2293.7c0,0,59.5,20.1,65.8,123.8c-9.7-0.8-32.4,0-32.4,0s4.2-75.4-38.1-90.1
				C2660.7,2318.7,2662,2293.7,2662,2293.7z"/>
			
				<linearGradient id="SVGID_21_" gradientUnits="userSpaceOnUse" x1="7698.6943" y1="2511.0894" x2="7716.7026" y2="2242.9653" gradientTransform="matrix(1 0 0 1 -5153.7842 0)">
				<stop  offset="9.996050e-02" style="stop-color:#311944"/>
				<stop  offset="0.267" style="stop-color:#371B47"/>
				<stop  offset="0.4803" style="stop-color:#462150"/>
				<stop  offset="0.7186" style="stop-color:#612A5F"/>
				<stop  offset="0.9736" style="stop-color:#853774"/>
				<stop  offset="1" style="stop-color:#893976"/>
			</linearGradient>
			<path class="st23" d="M2443.7,2287.5c1.5,18.9,3,37.8,4.4,56.7c29.4-8.5,61.5-18.3,96.1-20.1c44.9-2.4,86.1,2.9,122.8,12
				c1.6-2.4,5.1-8.1,6.7-17.5c2.6-15-1.7-27.5-2.5-29.8c-18.7-6.9-38.9-12.7-60.7-16.7C2548.3,2260.8,2492.1,2272,2443.7,2287.5z"/>
			
				<linearGradient id="SVGID_22_" gradientUnits="userSpaceOnUse" x1="7606.0098" y1="2319.0139" x2="7805.1636" y2="2425.7861" gradientTransform="matrix(1 0 0 1 -5153.7842 0)">
				<stop  offset="9.996050e-02" style="stop-color:#311944"/>
				<stop  offset="0.267" style="stop-color:#371B47"/>
				<stop  offset="0.4803" style="stop-color:#462150"/>
				<stop  offset="0.7186" style="stop-color:#612A5F"/>
				<stop  offset="0.9736" style="stop-color:#853774"/>
				<stop  offset="1" style="stop-color:#893976"/>
			</linearGradient>
			<path class="st24" d="M2440.9,2303.9c0.1-6.8,0.6-15.4,2.8-16.4c2.1-0.9,4.8,5.2,6,8.7c0.5,1.4,1.6,4.9,2.3,15.9
				c0.9,14.2-0.1,21.2-1.1,25.5c-0.6,2.6-1.5,6.5-2.8,6.6c-1.1,0.1-2-2.4-3.3-7.2C2443,2330.5,2440.7,2319.8,2440.9,2303.9z"/>
			
				<linearGradient id="SVGID_23_" gradientUnits="userSpaceOnUse" x1="7549.6699" y1="2691.4712" x2="7578.9399" y2="2255.6824" gradientTransform="matrix(1 0 0 1 -5153.7842 0)">
				<stop  offset="0" style="stop-color:#444B8C"/>
				<stop  offset="0.9964" style="stop-color:#26264F"/>
			</linearGradient>
			<path class="st25" d="M2386.8,2423.2c12.3,2.4,42.3,9.8,42.3,9.8s-19.5-66.3,17.3-97c1-5,1.9-13,0.8-22.5
				c-0.9-7.4-2.8-13.3-4.4-17.4C2427.1,2305.4,2393,2336.9,2386.8,2423.2z"/>
			
				<linearGradient id="SVGID_24_" gradientUnits="userSpaceOnUse" x1="7339.9941" y1="2654.5977" x2="7227.1099" y2="1622.725" gradientTransform="matrix(1 0 0 1 -5153.7842 0)">
				<stop  offset="9.996050e-02" style="stop-color:#311944"/>
				<stop  offset="0.6853" style="stop-color:#6D2F66"/>
				<stop  offset="1" style="stop-color:#893976"/>
			</linearGradient>
			<path class="st26" d="M2131.9,2440.7c0,0,1.5-34.8,52.9-34.8c8.1,6.4,8.5,34.8,8.5,34.8H2131.9z"/>
			
				<linearGradient id="SVGID_25_" gradientUnits="userSpaceOnUse" x1="7828.9141" y1="3087.6892" x2="7082.9922" y2="2672.3457" gradientTransform="matrix(1 0 0 1 -5153.7842 0)">
				<stop  offset="0" style="stop-color:#311944"/>
				<stop  offset="1" style="stop-color:#893976"/>
			</linearGradient>
			<path class="st27" d="M2086.2,3125.5l140.7,91.8l85.2-337.2l-140.4-452.1l-39.8,12.6l-60.4,649.3
				C2070.1,3104.6,2076,3118.9,2086.2,3125.5z"/>
			
				<linearGradient id="SVGID_26_" gradientUnits="userSpaceOnUse" x1="7155.4243" y1="2506.2817" x2="7382.23" y2="2886.6174" gradientTransform="matrix(1 0 0 1 -5153.7842 0)">
				<stop  offset="0" style="stop-color:#311944"/>
				<stop  offset="1" style="stop-color:#893976"/>
			</linearGradient>
			<path class="st28" d="M2312.1,2880.2l-140.4-452.1l-39.8,12.6c9.8,39.9,14.5,104.9,16.7,141c9.4,153.9,40.7,196.7,25.5,304.1
				c-12.6,89.3-40.1,101.4-37.7,161.5c2.6,65.4,38,120.2,80.1,163.3l10.4,6.8L2312.1,2880.2z"/>
			
				<linearGradient id="SVGID_27_" gradientUnits="userSpaceOnUse" x1="7715.7739" y1="2050.157" x2="7798.9253" y2="3166.147" gradientTransform="matrix(1 0 0 1 -5153.7842 0)">
				<stop  offset="9.996050e-02" style="stop-color:#311944"/>
				<stop  offset="0.6853" style="stop-color:#6D2F66"/>
				<stop  offset="1" style="stop-color:#893976"/>
			</linearGradient>
			<polygon class="st29" points="2171.7,2428.1 2944,2428.1 3065.6,3144.7 2226.9,3217.4 			"/>
			<g class="st30">
				
					<linearGradient id="SVGID_28_" gradientUnits="userSpaceOnUse" x1="7576.3296" y1="2683.4583" x2="8180.0459" y2="3148.6174" gradientTransform="matrix(1 0 0 1 -5153.7842 0)">
					<stop  offset="0" style="stop-color:#311944"/>
					<stop  offset="1" style="stop-color:#893976"/>
				</linearGradient>
				<path class="st31" d="M2944,2428.1h-260.2c-4.8,14.7-12.1,35-22.8,58c-116.4,250.1-382.7,281.6-377.9,322.8
					c7.2,61.4,600.4-25.8,615.5,58.7c7.3,40.8-117.9,133.4-248.8,168.5c-156.7,42-271.9-10.9-348.5,83.4c-25.9,32-37.4,69.4-43,94.7
					l807.3-69.4L2944,2428.1z"/>
			</g>
			
				<linearGradient id="SVGID_29_" gradientUnits="userSpaceOnUse" x1="7426.5142" y1="2616.4446" x2="7673.8013" y2="2606.8413" gradientTransform="matrix(1 0 0 1 -5153.7842 0)">
				<stop  offset="9.996050e-02" style="stop-color:#311944"/>
				<stop  offset="0.6853" style="stop-color:#6D2F66"/>
				<stop  offset="1" style="stop-color:#893976"/>
			</linearGradient>
			<path class="st32" d="M2184.8,2405.8c-8.7,0-20.9-1.2-34.1,7.2c-2.8,1.8-5.3,3.8-7.5,5.8l6.1-2.3c9.8-3.1,23.3,1,28.4,11.6
				c6.2,13,8.4,43.2,9.8,58.1c3.9,42.5,27.6,306.8,27.6,306.8c1.8,22.3,17.5,39.2,36,38.7l718.4-40.3c5.5-0.1,10.8-2,15.3-5.7
				c9.4-7.8,13.6-21.2,11.5-34l-36.4-314.8c-3.1-18.1-16.3-31.1-31.6-31.1H2184.8z"/>
			
				<linearGradient id="SVGID_30_" gradientUnits="userSpaceOnUse" x1="7814.7896" y1="3482.7759" x2="7725.2607" y2="2476.6462" gradientTransform="matrix(1 0 0 1 -5153.7842 0)">
				<stop  offset="9.996050e-02" style="stop-color:#311944"/>
				<stop  offset="0.267" style="stop-color:#371B47"/>
				<stop  offset="0.4803" style="stop-color:#462150"/>
				<stop  offset="0.7186" style="stop-color:#612A5F"/>
				<stop  offset="0.9736" style="stop-color:#853774"/>
				<stop  offset="1" style="stop-color:#893976"/>
			</linearGradient>
			<path class="st33" d="M2192.5,2405.8c-8.7,0-19-1.3-30.5,2c-3.1,0.9-8.1,2.5-10.3,4.5c0,0,24.4-6.3,33.6,15.7
				c5.6,13.4,8.4,43.2,9.8,58.1c3.9,42.5,27.6,306.8,27.6,306.8c1.8,22.3,17.5,39.2,36,38.7l726.5-16.8c5.5-0.1,10.8-2,15.3-5.7
				c9.4-7.8,13.6-21.2,11.5-34l-44.5-338.2c-3.1-18.1-16.3-31.1-31.6-31.1H2192.5z"/>
			
				<linearGradient id="SVGID_31_" gradientUnits="userSpaceOnUse" x1="7858.2686" y1="3714.5801" x2="7706.6382" y2="2328.5317" gradientTransform="matrix(1 0 0 1 -5153.7842 0)">
				<stop  offset="0" style="stop-color:#311944"/>
				<stop  offset="1" style="stop-color:#893976"/>
			</linearGradient>
			<path class="st34" d="M3012,2775.1l-44.5-338.2c-3.1-18.1-16.3-31.1-31.6-31.1h-743.5c-8.7,0-19-1.3-30.5,2
				c-3.1,0.9-8.1,2.5-10.3,4.5c0,0,24.4-6.3,33.6,15.7c0.9,2.1,1.7,4.7,2.5,7.5c70.6,3,141.2,0.8,211.8,5.8
				c139.6,9.5,280.7,9.5,412.4,70c42.1,19.4,71,89,59.6,121.1c-8.2,23.2-36.4,21.3-46.2,51.8c-10.3,32,14.4,53.7,4,76.2
				c-10.9,23.5-43.9,12.3-97.4,29.1c-29.5,9.3-52.1,22.9-66.2,32.6l319.4-7.4c5.5-0.1,10.8-2,15.3-5.7
				C3009.9,2801.4,3014.2,2787.9,3012,2775.1z"/>
			<g>
				
					<linearGradient id="SVGID_32_" gradientUnits="userSpaceOnUse" x1="7887.4878" y1="2892.689" x2="7438.4063" y2="2657.9417" gradientTransform="matrix(1 0 0 1 -5153.7842 0)">
					<stop  offset="0" style="stop-color:#444B8C"/>
					<stop  offset="0.9964" style="stop-color:#26264F"/>
				</linearGradient>
				<path class="st35" d="M2664.3,2877.8l-91,23.5l-9.6,0.8c-9.7,0.9-18-8.1-18.4-20l-4-111.9c-0.4-11.8,7.2-21.7,16.9-21.8l9.7-0.2
					l91.5,12.5c8.7-0.1,16.1-5.1,16.5,6l3.7,105C2680,2882.8,2673,2877,2664.3,2877.8z"/>
				
					<linearGradient id="SVGID_33_" gradientUnits="userSpaceOnUse" x1="8944.0752" y1="2400.2158" x2="7432.9277" y2="2942.2583" gradientTransform="matrix(1 0 0 1 -5153.7842 0)">
					<stop  offset="0" style="stop-color:#444B8C"/>
					<stop  offset="0.9964" style="stop-color:#26264F"/>
				</linearGradient>
				<path class="st36" d="M2671.2,2893.3l-100.8,8.9c-9.7,0.9-18-8.1-18.4-20l-4-111.9c-0.4-11.8,7.2-21.7,16.9-21.8l101.1-1.6
					c8.7-0.1,16.2,8.8,16.5,19.9l3.7,105C2686.7,2882.8,2679.9,2892.5,2671.2,2893.3z"/>
			</g>
		</g>
		<g>
			
				<linearGradient id="SVGID_34_" gradientUnits="userSpaceOnUse" x1="769.1617" y1="1088.0886" x2="679.8436" y2="1337.2385" gradientTransform="matrix(0.9643 -0.2648 0.2648 0.9643 566.8516 686.7058)">
				<stop  offset="0" style="stop-color:#FFC444"/>
				<stop  offset="0.9964" style="stop-color:#F36F56"/>
			</linearGradient>
			<path class="st37" d="M1560.3,1480c0,0,0.7-37.6,18.1-43.4c17.4-5.8,76.4-51.5,72.9-33.7c-3.5,17.8-29.4,31.5-29.4,31.5
				s21.8,27.1-5.9,42.9C1588.4,1493.2,1535.8,1546.2,1560.3,1480z"/>
			
				<linearGradient id="SVGID_35_" gradientUnits="userSpaceOnUse" x1="1248.9331" y1="749.0567" x2="171.4836" y2="1454.0715" gradientTransform="matrix(1 -9.000000e-03 9.000000e-03 1 689.0882 527.9237)">
				<stop  offset="0" style="stop-color:#FF9085"/>
				<stop  offset="1" style="stop-color:#FB6FBB"/>
			</linearGradient>
			<path class="st38" d="M1553.6,1469.5c13.2,15.9,26.3,31.9,39.5,47.8c-8.1,35.7-23.4,85.8-53.6,140.1
				c-13.3,24-55.1,94.5-132,155.9c-104.7,83.6-302.3,172.2-370.3,102.4c-60.7-62.2,9.5-222.1,22.5-250.8
				c33.8,11.6-10.4-25.1,157.2,23.5c21.6,6.2,80.8-3.5,143.9-30.5C1477.6,1607.9,1534.7,1507.1,1553.6,1469.5z"/>
			
				<linearGradient id="SVGID_36_" gradientUnits="userSpaceOnUse" x1="1321.2368" y1="2797.6685" x2="1476.8878" y2="3359.3657" gradientTransform="matrix(-0.9968 7.990000e-02 7.990000e-02 0.9968 2308.6487 65.4365)">
				<stop  offset="0" style="stop-color:#311944"/>
				<stop  offset="1" style="stop-color:#893976"/>
			</linearGradient>
			<path class="st39" d="M1087.7,3289.4c0,0-5,30.6-4.4,41.5c0.6,10.9,121.4,16.4,122.6,8.3c1.2-8.2-20-21.1-34.9-25.7
				c-14.9-4.6-58.5-16.8-58.5-16.8L1087.7,3289.4z"/>
			
				<linearGradient id="SVGID_37_" gradientUnits="userSpaceOnUse" x1="1459.7653" y1="3194.7939" x2="1462.0212" y2="3005.3044" gradientTransform="matrix(-0.9968 7.990000e-02 7.990000e-02 0.9968 2308.6487 65.4365)">
				<stop  offset="0" style="stop-color:#FFC444"/>
				<stop  offset="0.9964" style="stop-color:#F36F56"/>
			</linearGradient>
			<path class="st40" d="M1117,3258.9l-3.9,38c0,0-14,9.3-26.4,2.1l-6.2-41.4L1117,3258.9z"/>
			
				<linearGradient id="SVGID_38_" gradientUnits="userSpaceOnUse" x1="1516.1077" y1="2743.6599" x2="1671.7598" y2="3305.3611" gradientTransform="matrix(-0.9968 7.990000e-02 7.990000e-02 0.9968 2308.6487 65.4365)">
				<stop  offset="0" style="stop-color:#311944"/>
				<stop  offset="1" style="stop-color:#893976"/>
			</linearGradient>
			<path class="st41" d="M872.2,3338.9c0,0-5,30.6-4.4,41.5c0.6,10.9,121.4,16.4,122.6,8.3c1.2-8.2-20-21.1-34.9-25.7
				c-14.9-4.6-58.5-16.8-58.5-16.8L872.2,3338.9z"/>
			
				<linearGradient id="SVGID_39_" gradientUnits="userSpaceOnUse" x1="1678.8768" y1="3197.3977" x2="1681.1328" y2="3007.907" gradientTransform="matrix(-0.9968 7.990000e-02 7.990000e-02 0.9968 2308.6487 65.4365)">
				<stop  offset="0" style="stop-color:#FFC444"/>
				<stop  offset="0.9964" style="stop-color:#F36F56"/>
			</linearGradient>
			<path class="st42" d="M901.6,3308.5l-3.9,38c0,0-14,9.3-26.4,2.1l-6.2-41.4L901.6,3308.5z"/>
			
				<linearGradient id="SVGID_40_" gradientUnits="userSpaceOnUse" x1="1350.5192" y1="2585.3792" x2="1552.27" y2="2585.3792" gradientTransform="matrix(-0.9968 7.990000e-02 7.990000e-02 0.9968 2308.6487 65.4365)">
				<stop  offset="0" style="stop-color:#444B8C"/>
				<stop  offset="0.9964" style="stop-color:#26264F"/>
			</linearGradient>
			<path class="st43" d="M1095.1,2266.2c14,28.3,27.9,56.6,41.9,84.9c11.2,161.5,16.8,337.2,13.2,525
				c-2.7,139.7-10.1,272.1-20.9,396.4c-18.9-0.9-37.9-1.7-56.8-2.6c-27.4-54.3-59.7-136.6-62.7-238.2c-3.1-106,29-120,27-221.5
				c-2.6-131.5-57.8-166.6-87.2-324.8c-11.2-60.5-18.8-139.5-9.8-235.4C991.7,2255.4,1043.4,2260.8,1095.1,2266.2z"/>
			
				<linearGradient id="SVGID_41_" gradientUnits="userSpaceOnUse" x1="1350.5229" y1="2585.3792" x2="1552.2704" y2="2585.3792" gradientTransform="matrix(-0.9968 7.990000e-02 7.990000e-02 0.9968 2308.6487 65.4365)">
				<stop  offset="0" style="stop-color:#444B8C"/>
				<stop  offset="0.9964" style="stop-color:#26264F"/>
			</linearGradient>
			<path class="st44" d="M939.9,2250c27.9,2.9,55.9,5.8,83.8,8.7c50.3,87.5,64.3,178.6,55.5,218.9c-12.5,57-45.5,75.3-43.7,132.5
				c1.8,56.6,35.2,71.3,56.3,138.1c14.7,46.2,10.8,88.7,2.4,171.8c-16.8,167.4-57.2,218.6-23.3,273.4c9.6,15.6,27,34.2,60.9,48.3
				c-0.8,10.3-1.6,20.6-2.5,30.7c-18.9-0.9-37.9-1.7-56.8-2.6c-27.4-54.3-59.7-136.6-62.7-238.2c-3.1-106,29-120,27-221.5
				c-2.6-131.5-57.8-166.6-87.2-324.8C938.5,2424.9,931,2345.8,939.9,2250z"/>
			
				<linearGradient id="SVGID_42_" gradientUnits="userSpaceOnUse" x1="1464.4209" y1="2614.198" x2="1770.6926" y2="2614.198" gradientTransform="matrix(-0.9968 7.990000e-02 7.990000e-02 0.9968 2308.6487 65.4365)">
				<stop  offset="0" style="stop-color:#444B8C"/>
				<stop  offset="0.9964" style="stop-color:#26264F"/>
			</linearGradient>
			<path class="st45" d="M1020,2317.1c-26.2,142.9-49.4,295.8-67.4,458c-21.8,195.8-33.4,380.5-38,551.9
				c-20.8,0.6-41.6,1.2-62.3,1.8c-81.9-162-86.9-271.8-75.1-343.2c4.5-27.5,16.9-81.6,19.7-162.3c2-56.3-1.6-99.1-6.1-150.6
				c-9.8-112.9-21.8-137.5-23.5-223.9c-1.6-81-1.9-122,21.2-146C849.5,2239.8,1008,2311.5,1020,2317.1z"/>
			
				<linearGradient id="SVGID_43_" gradientUnits="userSpaceOnUse" x1="2080.0115" y1="2650.4958" x2="1396.4954" y2="1669.21" gradientTransform="matrix(-0.9968 7.990000e-02 7.990000e-02 0.9968 2308.6487 65.4365)">
				<stop  offset="0" style="stop-color:#FF9085"/>
				<stop  offset="1" style="stop-color:#FB6FBB"/>
			</linearGradient>
			<path class="st46" d="M1152.9,2380.1c19.9-33-5.1-64.9-10.8-127.5c-6.4-70.9,20.9-82.7,47.9-200.3c18-78.2,35.2-153.2,14.6-241.1
				c-9.9-42.1-26.6-113.5-85.7-148c-30.5-17.8-72.1-16-154.2-11.7c-101.4,5.3-152.2,8-190,27.9c-5.5,2.9-120.6,65.5-128.5,167.5
				c-8.1,103.8,105,117.8,120.1,256.3c6.8,62.2-5.3,157.8-13.1,219.8c-7.5,59.5-12.7,74.8-0.9,92.8c28.3,43.5,115,31.1,288.4,6.3
				C1108.8,2412.5,1138.1,2404.7,1152.9,2380.1z"/>
			
				<linearGradient id="SVGID_44_" gradientUnits="userSpaceOnUse" x1="2079.9487" y1="2650.5486" x2="1396.4207" y2="1669.2454" gradientTransform="matrix(-0.9968 7.990000e-02 7.990000e-02 0.9968 2308.6487 65.4365)">
				<stop  offset="0" style="stop-color:#FF9085"/>
				<stop  offset="1" style="stop-color:#FB6FBB"/>
			</linearGradient>
			<path class="st47" d="M889.1,2081c-7.3,27-33.7,47.1-52.1,112.8c-4,14.2-32.2,115.1,4.4,140c21.2,14.3,40.1-12.8,91.5-16.4
				c89-6.2,131.3,68.6,189.4,48.2c10.1-3.5,23.4-11.1,36.7-28.5c2.6,15.6,2.2,29.2-6.1,43c-14.9,24.6-44.1,32.4-112.2,42.1
				c-173.4,24.8-260.1,37.1-288.4-6.3c-11.8-18-6.6-33.3,0.9-92.8c7.8-62,19.9-157.6,13.1-219.8
				c-15.1-138.5-128.2-152.4-120.1-256.3c2.2-27.8,12.4-52.5,26-74C815.8,1831,912.1,1996.2,889.1,2081z"/>
			
				<linearGradient id="SVGID_45_" gradientUnits="userSpaceOnUse" x1="1663.7246" y1="2106.2231" x2="1773.9762" y2="2106.2231" gradientTransform="matrix(-0.9968 7.990000e-02 7.990000e-02 0.9968 2308.6487 65.4365)">
				<stop  offset="0" style="stop-color:#FFC444"/>
				<stop  offset="0.9964" style="stop-color:#F36F56"/>
			</linearGradient>
			<path class="st48" d="M707.9,2285.2l28.7,18.3c5.2-6,17.1-18,35.7-22.1c21-4.6,45.1,2,45.6,8.7c0.4,5.4-14.2,10.8-16.5,11.6
				c-18.3,6.8-31.9,1.1-39.3,8.5c-2.6,2.6-5.9,7.4-13.4,11.9c-2,1.2-4,2.2-5.1,2.6c-12.2,4.8-33.2-16.5-35-18.4L707.9,2285.2z"/>
			<linearGradient id="SVGID_46_" gradientUnits="userSpaceOnUse" x1="1147.407" y1="2615.4424" x2="590.1583" y2="1815.4316">
				<stop  offset="0" style="stop-color:#FF9085"/>
				<stop  offset="1" style="stop-color:#FB6FBB"/>
			</linearGradient>
			<path class="st49" d="M792.7,1908.8c20.8-49.7,36.7-125.4,3.9-238.5c-216.1,85.1-327.9,286.6-284.8,446.6
				c35.5,131.9,164.5,196.2,193.3,209.7c6.7-15.2,13.4-30.5,20.1-45.7c-33.4-37.2-71-92.1-65.6-154.8
				C666.9,2039.1,750.6,2009.5,792.7,1908.8z"/>
			<linearGradient id="SVGID_47_" gradientUnits="userSpaceOnUse" x1="976.0327" y1="1539.2863" x2="958.4286" y2="1810.7992">
				<stop  offset="0" style="stop-color:#FFC444"/>
				<stop  offset="0.9964" style="stop-color:#F36F56"/>
			</linearGradient>
			<path class="st50" d="M959.5,1549.3c0,0-1.7,37.8-13.4,66.1c-10.6,25.6-66.4,41.7-77.7,47.4c-11.3,5.7,21.2,22.4,53.8,25.7
				c32.6,3.3,125.8-4.1,142.6-16.5c16.8-12.4-13.5-11.4-36.8-20c-23.3-8.5-36.8-54.1-32.6-74.8
				C999.4,1556.5,959.5,1549.3,959.5,1549.3z"/>
			
				<linearGradient id="SVGID_48_" gradientUnits="userSpaceOnUse" x1="1503.9949" y1="1494.785" x2="1422.2639" y2="1287.2034" gradientTransform="matrix(-0.9968 7.990000e-02 7.990000e-02 0.9968 2308.6487 65.4365)">
				<stop  offset="0" style="stop-color:#444B8C"/>
				<stop  offset="0.9964" style="stop-color:#3E4177"/>
			</linearGradient>
			<path class="st51" d="M1011.1,1535.6c16.9-16.6,19.3-18.6,21.1-24.3c7.4-23.1-10.5-54.7-34-62.5c-1.2-0.4-17-5.4-23,1.4
				c-5.1,5.8,2.4,13.8-1.2,25c-3.3,10.5-12.4,11.2-29.2,25c-13.9,11.3-22.5,18.3-24.4,28.2c-4.1,20.4,20.6,49.9,42.4,49.1
				C970.7,1577.2,972.8,1573.1,1011.1,1535.6z"/>
			<g>
				
					<linearGradient id="SVGID_49_" gradientUnits="userSpaceOnUse" x1="-899.6852" y1="797.2488" x2="-854.9974" y2="106.6163" gradientTransform="matrix(-0.7795 0.6265 0.6265 0.7795 -1015.7339 622.2045)">
					<stop  offset="0" style="stop-color:#FFC444"/>
					<stop  offset="0.9964" style="stop-color:#F36F56"/>
				</linearGradient>
				<path class="st52" d="M965,1580.6c0,0,18,20.4,45.4,13.6c24.5-6,18.3-62.4,0.3-71.4c-6-3-16.9-2.8-25.1,1.2
					c-4.8,2.3-6.2,4.8-14.2,8.4c-7.4,3.4-9.7,2.9-11.7,5.3c-2.5,3-3.5,9.4,4.2,24.8c-5.6-4-11.6-4.8-15.3-2.2
					c-0.6,0.4-2.1,1.9-2.7,3.8C943.7,1571.1,950.9,1578.2,965,1580.6z"/>
			</g>
			<g>
				<linearGradient id="SVGID_50_" gradientUnits="userSpaceOnUse" x1="977.6462" y1="1591.061" x2="988.8826" y2="1755.6748">
					<stop  offset="0" style="stop-color:#444B8C"/>
					<stop  offset="0.9964" style="stop-color:#26264F"/>
				</linearGradient>
				<path class="st53" d="M1012.1,1684.6c-3.3,7.6-7.1,15.4-11.3,23.4c-1.9,3.7-3.9,7.2-5.8,10.7c-8,1.1-16.1,2.2-24.1,3.3
					c-4.8-11-9.7-22-14.5-33c5.6-0.2,11.6-0.5,17.7-0.9c3.3,0.1,6.8,0,10.4-0.2c6.5-0.4,12.6-1.2,18-2.2
					C1005.6,1685.4,1008.9,1685,1012.1,1684.6z"/>
				
					<linearGradient id="SVGID_51_" gradientUnits="userSpaceOnUse" x1="2683.9692" y1="2133.6521" x2="2683.9692" y2="1657.4291" gradientTransform="matrix(-0.9999 1.300000e-02 1.300000e-02 0.9999 3689.9065 -191.3752)">
					<stop  offset="0" style="stop-color:#444B8C"/>
					<stop  offset="0.9964" style="stop-color:#26264F"/>
				</linearGradient>
				<path class="st54" d="M994.7,1716.4c0,0,27.7,270.8,112.9,313.1c-2.1,8.7,1,79.2,1,79.2s-79.2-22.7-83.7-21.1
					c-4.5,1.6-97.5-148.1-54.1-365.7L994.7,1716.4z"/>
			</g>
		</g>
		<g>
			<linearGradient id="SVGID_52_" gradientUnits="userSpaceOnUse" x1="3128.259" y1="686.085" x2="2844.0784" y2="959.2296">
				<stop  offset="0" style="stop-color:#AA80F9"/>
				<stop  offset="0.9964" style="stop-color:#6165D7"/>
			</linearGradient>
			<path class="st55" d="M2561.2,1963.3c-25.1,0.7-49.5-5.6-70.7-18.3c-64.5-38.7-159.9-102.6-245.7-186.2
				c-108.9-106.1-171.4-214-185.1-319.9l-0.2-1.7l-2.7-451.9c0-89.3,58.3-161.8,167.6-209.5c90.4-39.4,210.1-58.9,336.7-55.2
				c125.1,3.6,240.8,29.4,326.4,72.4c101.8,51.1,155.2,122.9,155.2,208.1l-2.4,431.8l-0.2,1.6c-12.5,101.4-70,206.3-171.8,312.3
				c-81.6,85-173.8,152.4-237.1,194.2C2610.5,1954.9,2586.2,1962.6,2561.2,1963.3z"/>
			<linearGradient id="SVGID_53_" gradientUnits="userSpaceOnUse" x1="2283.6284" y1="748.3248" x2="3249.6267" y2="2328.2786">
				<stop  offset="0" style="stop-color:#AA80F9"/>
				<stop  offset="0.9964" style="stop-color:#6165D7"/>
			</linearGradient>
			<path class="st56" d="M2586,1963.3c-24.7,0.7-48.9-5.6-69.8-18.3c-63.7-38.7-157.8-102.6-242.4-186.2
				c-107.4-106.1-169.1-214-182.6-319.9l-0.2-1.7l-2.6-451.9c0-89.3,57.5-161.8,165.4-209.5c89.2-39.4,207.4-58.9,332.2-55.2
				c123.4,3.6,237.6,29.4,322.1,72.4c100.5,51.1,153.2,122.9,153.2,208.1L3059,1433l-0.2,1.6c-12.3,101.4-69.1,206.3-169.5,312.3
				c-80.5,85-171.5,152.4-233.9,194.2C2634.7,1954.9,2610.7,1962.6,2586,1963.3z"/>
			<linearGradient id="SVGID_54_" gradientUnits="userSpaceOnUse" x1="2799.2227" y1="1647.8875" x2="2014.6917" y2="70.3576">
				<stop  offset="0" style="stop-color:#AA80F9"/>
				<stop  offset="0.9964" style="stop-color:#6165D7"/>
			</linearGradient>
			<path class="st57" d="M2121.6,985.6l2.6,449.7c29.6,229.4,299.2,415.2,416.7,485.8c33.6,20.2,76.7,19,110.1-3
				c115-75.7,369.8-266.1,397.1-486.7l2.4-430.6C3050.5,681.2,2121.6,652,2121.6,985.6z"/>
			<g class="st58">
				<path class="st1" d="M2595.6,1567.5c18.3-201.7,124.1-286.7,116.9-467.5c-5.2-131.5-67.7-249.3-156.6-352
					c-222.9,0.7-437.6,77.3-437.6,237.6l2.6,449.7c29.6,229.4,299.2,415.2,416.7,485.8c33.6,20.2,76.7,19,110.1-3
					c2.6-1.7,5.3-3.5,8-5.3C2598.2,1777.4,2587,1662.2,2595.6,1567.5z"/>
			</g>
			<linearGradient id="SVGID_55_" gradientUnits="userSpaceOnUse" x1="3226.8145" y1="994.3494" x2="2705.3606" y2="1243.838">
				<stop  offset="0" style="stop-color:#AA80F9"/>
				<stop  offset="0.9964" style="stop-color:#6165D7"/>
			</linearGradient>
			<path class="st59" d="M2592.7,1851.8c-2.2,0.1-5.4-0.3-8.7-2.3c-48.4-29.3-142.1-90.6-223.6-170.7
				c-88.1-86.5-138.9-170.6-150.5-249.6l-2.6-442.2c0.1-42.4,33.7-78.7,99.5-107.8c73.5-32.4,177.9-49.5,285.9-46.9
				c106.9,2.5,208.3,24.1,278.5,58.9c62.1,30.8,93.5,67.1,93.6,108.1l-2.4,426.9c-10.9,76.4-58.5,158.9-142.3,245.5
				c-78.7,81.5-170.7,146-218.7,177.4C2598.1,1851.2,2594.9,1851.7,2592.7,1851.8z"/>
			<linearGradient id="SVGID_56_" gradientUnits="userSpaceOnUse" x1="2828.9768" y1="826.1106" x2="1992.8502" y2="2125.2522">
				<stop  offset="0" style="stop-color:#AA80F9"/>
				<stop  offset="0.9964" style="stop-color:#6165D7"/>
			</linearGradient>
			<path class="st60" d="M2581.7,1821.5c-48.8-30.1-135.7-88.1-211.4-162.7c-82.8-81.5-130.7-159.6-141.9-232l-2.6-439.6
				c0.1-30.3,28-58.2,82.7-82.4c69.6-30.8,169.4-47.1,273.2-44.7c102.9,2.3,199.8,22.6,266.5,55.6c51.8,25.6,78,53.6,78,83.1
				l-2.4,425.3c-10.6,70.2-55.7,146.9-134.8,228.5C2715.7,1728.5,2630.3,1789.4,2581.7,1821.5z"/>
			<path class="st61" d="M2555.9,1591c-19.4,1.3-37.5-7.8-47.6-23.9l-168.9-271.2c-15.8-25.4-7.3-60.2,19-77.7
				c26.3-17.5,60.5-11.1,76.3,14.3l117.1,188.2l154.5-314.7c13.9-28.2,47.2-41.2,74.4-29c27.2,12.2,38,45.1,24.2,73.3l-199.7,407
				c-9.1,18.6-27.3,31.5-47.5,33.5C2557.2,1590.9,2556.6,1590.9,2555.9,1591z"/>
			<g class="st58">
				<path class="st1" d="M2595.6,1567.5c18.3-201.7,124.1-286.7,116.9-467.5c-3.4-84.7-30.5-163.7-73.2-236.7
					c-18.9-1.7-38.2-2.8-57.6-3.2c-103.9-2.3-203.6,13.9-273.2,44.7c-54.7,24.2-82.6,52.1-82.7,82.4l2.6,439.6
					c11.3,72.3,59.2,150.5,141.9,232c75.8,74.6,162.6,132.6,211.4,162.7c10-6.6,21.7-14.6,34.5-23.5
					C2593.3,1711.1,2589.6,1634.2,2595.6,1567.5z"/>
			</g>
		</g>
	</g>
</g>
</svg>
